<?xml version="1.0" standalone="no"?>
<!DOCTYPE svg PUBLIC "-//W3C//DTD SVG 20010904//EN"
 "http://www.w3.org/TR/2001/REC-SVG-20010904/DTD/svg10.dtd">
<svg xmlns="http://www.w3.org/2000/svg" width="24" height="24" viewBox="0 0 512 512" fill="currentColor">
  <path d="M195 36.5c-60.7 17.8-110.6 60.1-138.5 117-11.1 22.6-17.3 42.3-21.1 66.5-2.5 15.9-2.5 49.9-0.1 66 10.3 66.9 47.4 123.6 104.5 159.7 26 16.4 60.8 28.6 92.7 32.3 14 1.7 41.6 1.5 56-0.5 80.1-10.7 148.8-64.2 179-139.5 4.1-10.1 10.5-30.5 10.5-33.3 0-0.6-2.4 2.2-5.3 6.1-30.5 41.1-72.3 68.7-119.2 78.7-50.2 10.8-102.7 0.8-146.3-27.8-47.1-30.8-78.3-79.9-86.7-136.2-2-13.2-2-41.4 0-54.8 7.7-51.2 36.8-98.9 80-131 4.4-3.2 8.2-6.1 8.4-6.3 1.1-1-3.3 0-13.9 3.1z"/>
  <path d="M285.8 66.9c-29.1 9.3-41.1 44.2-24.1 69.8 12.8 19.3 38.6 25.8 59.7 15.1 4.9-2.5 12.9-10 16.8-15.6 1.6-2.3 2.7-4.2 2.4-4.2-0.3 0-3.1 0.7-6.3 1.5-7.7 2-13.8 1.9-21.5-0.5-8.4-2.6-15.1-7.1-20-13.6-11.5-15.3-9.9-35.6 3.9-49.2l5.4-5.2-5.3 0.1c-2.9 0-7.9 0.8-11 1.8z"/>
  <path d="M291 186l0 18 8.5 0 8.5 0 0-18 0-18-8.5 0-8.5 0 0 18z"/>
  <path d="M291.1 216.1c-12.8 2.5-25.7 12.5-31.1 24.1-2.8 6-5 14.8-3.6 14.8 0.3 0 4.7-1.1 9.8-2.4 12.4-3.2 29.9-5 41.2-4.1 10.1 0.7 25.9 3.7 32.5 6l4.3 1.5-0.7-4.3c-1.8-11.1-12-25.4-22.3-31-8.9-4.8-20.2-6.6-30.1-4.6z"/>
  <path d="M276.5 268c-28.4 6.1-52.7 21.7-69.7 44.5-5.7 7.5-10.8 16.3-10.8 18.4 0 1.4 15.2 13.1 25 19.2 17.3 10.7 38.1 18.8 59.1 23.1 10 2 14.2 2.3 34.4 2.2 25.2 0 31.5-0.9 52-7.4 10.5-3.3 30.4-12.6 39.2-18.2l5.2-3.3-3.5-8.5c-14-34.3-42.9-59.2-80.3-69.2-11.5-3-38.4-3.5-50.6-0.8z"/>
</svg>
