<?xml version="1.0" standalone="no"?>
<!DOCTYPE svg PUBLIC "-//W3C//DTD SVG 20010904//EN"
 "http://www.w3.org/TR/2001/REC-SVG-20010904/DTD/svg10.dtd">
<svg xmlns="http://www.w3.org/2000/svg" width="24" height="24" viewBox="0 0 512 512" fill="currentColor" stroke="currentColor" stroke-width="0">
  <path d="M261.5 0.6c-40.8 6.2-72.4 33.6-82.2 71.3-3.4 13.2-3.6 31.6-0.5 44.4 7.4 30.1 25.9 52.8 53.9 65.9l8.4 3.9-0.3 11.7-0.3 11.7-8.4 0.8c-38.3 3.4-80.9 20.6-112.9 45.4-39.1 30.3-67.6 73.4-79.6 120.3-3.4 13.5-6.6 32-6.6 38.5v3.5h-11.4c-10.1 0-11.7 0.2-14.7 2.3-9.1 6.1-8.9 18.1 0.5 25.1 2.2 1.7 4.6 2.1 13.7 2.4l10.9 0.4v25.6c0 23.8 0.1 25.9 2.1 29.8 1.5 3.1 3.2 4.8 6.3 6.3l4.2 2.1h211.4 211.4l4.2-2.1c3.1-1.5 4.8-3.2 6.3-6.3 2-3.9 2.1-6 2.1-29.9v-25.7l9.7 0c7.7 0 10.5-0.4 13.9-2.1 8.1-3.9 10.7-14.5 5.4-22-3.4-4.7-7.4-5.9-19.5-5.9h-10.5v-3.5c0-6.5-3.2-25-6.6-38.5-16.1-63.1-60.5-116.6-120.6-145.5-20.9-10-50.1-18.3-71.9-20.2l-8.4-0.8-0.3-9-0.3-9.1 10.3-1.1c22.2-2.5 47-14 52.3-24.4 1.9-3.5 1.9-9.2 0.1-12.7-2.8-5.4-5.9-7.3-13.7-8.3-17.8-2.4-26.7-6.6-36.1-16.6-15.2-16.4-17.2-41.5-4.7-60.2 2.2-3.3 5.9-7.7 8.2-9.7 8.1-6.9 21.9-12.4 31.5-12.4 10.5 0 18.3-10 15.2-19.5-1.6-5-9-10.9-20.5-16.6-13.1-6.5-23-8.9-37.5-9.4-6.3-0.2-12.8-0.1-14.5 0.1zm2.6 39.1c-8.3 8.4-10.4 11.2-14.4 19.3-5.7 11.8-7.6 18.8-8.4 31.2-1 16.5 3 33.4 11.3 46.9 3.6 6.1 14.1 17.5 19.9 21.8l3 2.2-8.1-0.5c-9.9-0.7-16.8-2.7-25.4-7.2-22-11.5-35.3-33.3-35.3-57.9 0-25.6 14.2-47.9 37.6-59 8-3.9 17.5-6.3 24.9-6.4l4.6-0.1-9.7 9.7zm17.3 200.4c79.5 8.6 146.3 66.2 166.5 143.4 2.7 10.3 5.7 26.9 5.7 31.7v2.8h-193 -193v-2.9c0-5.2 3.9-25.4 6.9-36.3 20.9-73.9 87.1-129.7 164.4-138.7 10.6-1.2 31.4-1.3 42.5 0zm173.2 224.9v17h-194 -194v-17 -17h194 194v17z"/>
</svg>
