<?xml version="1.0" standalone="no"?>
<!DOCTYPE svg PUBLIC "-//W3C//DTD SVG 20010904//EN"
 "http://www.w3.org/TR/2001/REC-SVG-20010904/DTD/svg10.dtd">
<svg version="1.0" xmlns="http://www.w3.org/2000/svg"
 width="512.000000pt" height="512.000000pt" viewBox="0 0 512.000000 512.000000"
 preserveAspectRatio="xMidYMid meet">

<g transform="translate(0.000000,512.000000) scale(0.100000,-0.100000)"
fill="#000000" stroke="none">
<path d="M1027 5113 c-4 -3 -7 -65 -7 -136 0 -108 -3 -134 -17 -149 -10 -12
-18 -42 -21 -80 -4 -55 -8 -64 -40 -92 -57 -50 -62 -73 -62 -290 l0 -194 -57
-7 c-93 -11 -103 -18 -103 -66 0 -41 0 -41 33 -35 179 33 434 34 590 0 26 -5
27 -4 27 39 0 50 3 48 -102 63 l-48 6 0 182 c0 100 -5 199 -11 221 -7 26 -27
55 -55 81 -42 39 -44 44 -44 96 0 32 -6 62 -15 74 -11 14 -14 50 -15 145 0 83
-4 129 -12 137 -13 13 -31 16 -41 5z"/>
<path d="M830 4028 c-41 -5 -77 -11 -79 -14 -3 -2 5 -21 17 -42 l21 -37 93 5
c128 7 227 6 333 -2 l90 -7 23 39 c17 30 19 41 10 45 -70 24 -362 31 -508 13z"/>
<path d="M870 3881 l-55 -6 -5 -305 -5 -305 -65 -10 -65 -10 -3 -58 c-3 -53
-1 -58 15 -53 141 40 583 41 716 0 16 -5 18 0 15 53 l-3 58 -67 9 -68 9 0 307
0 307 -77 7 c-87 7 -251 6 -333 -3z"/>
<path d="M2967 3134 c-4 -4 -7 -67 -7 -140 l0 -134 -35 -55 c-20 -31 -33 -60
-30 -65 8 -12 182 -13 189 -1 3 4 -10 34 -29 65 -34 57 -34 58 -37 194 -3 129
-4 137 -23 140 -12 2 -24 0 -28 -4z"/>
<path d="M910 3115 c-8 -2 -61 -9 -117 -15 -57 -7 -103 -14 -103 -16 0 -2 15
-26 33 -53 29 -46 34 -49 62 -43 40 9 481 9 522 0 30 -7 35 -4 63 37 16 24 30
48 30 53 0 16 -147 34 -315 37 -88 2 -167 2 -175 0z"/>
<path d="M965 2944 c-27 -2 -83 -6 -122 -10 l-73 -6 0 -434 0 -434 -105 0
-105 0 0 -100 0 -100 490 0 490 0 0 100 0 100 -110 0 -110 0 0 434 0 434 -62
6 c-100 9 -239 13 -293 10z"/>
<path d="M2697 2610 c-295 -168 -448 -281 -618 -457 -204 -211 -331 -455 -373
-713 -8 -52 -18 -179 -21 -282 l-7 -188 1311 0 1311 0 0 134 c0 469 -124 779
-433 1087 -154 153 -336 281 -642 452 l-100 56 -55 -11 c-50 -9 -143 -6 -195
7 -13 3 -75 -27 -178 -85z"/>
<path d="M582 1802 c2 -5 21 -36 43 -70 l40 -62 387 0 386 0 28 48 c15 26 34
57 42 70 l14 22 -472 0 c-259 0 -470 -4 -468 -8z"/>
<path d="M680 1515 c0 -52 3 -95 8 -95 4 0 24 11 44 25 20 14 42 25 49 25 6 0
39 -17 72 -37 57 -34 62 -36 86 -22 14 8 45 26 69 39 l42 24 38 -23 c96 -57
91 -57 162 -15 l64 37 48 -26 c26 -15 50 -27 53 -27 3 0 5 43 5 95 l0 95 -370
0 -370 0 0 -95z"/>
<path d="M728 1367 l-48 -32 0 -83 0 -84 44 26 c55 32 67 32 114 3 77 -49 74
-49 136 -11 31 18 65 34 74 34 9 0 43 -16 75 -35 l58 -35 67 40 66 39 42 -24
c24 -14 46 -25 51 -25 4 0 7 37 5 83 l-3 83 -48 26 -47 27 -58 -34 c-31 -19
-66 -35 -76 -35 -11 0 -44 16 -75 35 l-55 36 -67 -41 -66 -40 -46 27 c-25 14
-55 32 -66 40 -25 17 -22 17 -77 -20z"/>
<path d="M728 1119 l-48 -31 0 -84 0 -84 50 31 51 31 62 -37 c34 -21 67 -38
72 -38 6 0 38 17 72 37 l62 38 66 -40 67 -40 66 39 66 39 44 -25 c25 -14 47
-25 51 -25 3 0 4 39 1 86 l-5 85 -46 26 -46 26 -60 -36 c-33 -20 -66 -37 -73
-37 -7 0 -38 16 -71 36 l-59 37 -61 -37 c-33 -20 -67 -36 -74 -36 -8 0 -40 16
-72 35 -32 19 -60 35 -63 35 -3 0 -26 -14 -52 -31z"/>
<path d="M1636 866 l-36 -44 0 -136 0 -136 144 0 144 0 4 96 c3 94 4 96 36
125 34 31 66 36 106 18 39 -18 56 -66 56 -158 l0 -81 140 0 140 0 0 81 c0 92
17 140 56 158 40 18 72 13 106 -18 32 -29 33 -31 36 -125 l4 -96 139 0 139 0
0 85 c0 96 14 134 55 153 41 19 72 14 107 -17 31 -28 32 -31 36 -125 l4 -96
139 0 139 0 0 96 c0 92 1 97 29 125 38 37 88 39 128 5 26 -23 28 -30 33 -123
l5 -98 143 -3 142 -3 0 96 c0 93 1 98 29 126 41 40 91 40 132 0 28 -28 29 -33
29 -125 l0 -96 190 0 190 0 0 136 0 137 -36 43 -35 44 -1318 0 -1319 0 -36
-44z"/>
<path d="M723 869 l-43 -30 0 -80 c0 -43 3 -79 8 -79 4 0 24 11 44 25 20 14
42 25 49 25 6 0 39 -17 72 -37 l60 -37 41 24 c105 60 91 57 133 32 97 -58 92
-58 162 -16 l64 38 50 -28 c27 -15 50 -26 51 -24 1 2 0 40 -2 86 l-4 82 -45
27 -46 27 -69 -38 -68 -37 -59 35 c-32 20 -64 36 -71 36 -6 0 -39 -16 -71 -35
-33 -19 -63 -35 -66 -35 -3 0 -31 16 -63 35 -32 19 -64 35 -71 35 -8 -1 -33
-14 -56 -31z"/>
<path d="M731 627 l-51 -32 0 -83 0 -83 49 28 c55 30 56 30 152 -28 l36 -21
56 36 c31 20 64 36 74 36 10 0 44 -16 76 -35 l59 -35 58 35 c66 40 84 42 125
15 17 -11 35 -20 40 -20 6 0 9 32 7 82 -4 87 -5 89 -67 123 -32 16 -32 16 -88
-19 -31 -20 -65 -36 -76 -36 -11 0 -45 16 -76 35 l-55 36 -66 -40 c-74 -45
-70 -45 -165 15 l-36 23 -52 -32z"/>
<path d="M1523 449 l-53 -40 0 -139 0 -140 -30 0 -30 0 0 113 0 112 -46 29
c-52 33 -37 36 -141 -25 l-42 -24 -38 23 c-97 58 -92 58 -162 16 l-63 -37 -41
21 c-23 12 -54 29 -68 38 -26 17 -28 17 -78 -15 l-51 -33 0 -109 0 -109 -153
0 c-175 0 -197 -7 -197 -65 0 -71 -195 -65 2230 -65 2425 0 2230 -6 2230 65 0
55 -25 65 -162 65 l-118 0 0 144 0 144 -53 36 -52 36 -1415 0 -1415 0 -52 -41z
m328 -108 c28 -28 29 -33 29 -120 l0 -91 -95 0 -95 0 0 80 c0 117 26 159 98
160 24 0 42 -8 63 -29z m478 8 c32 -30 41 -61 41 -145 l0 -74 -100 0 -100 0 0
74 c0 41 4 86 9 99 16 41 51 67 91 67 23 0 44 -8 59 -21z m472 11 c34 -19 49
-64 49 -150 l0 -80 -95 0 -95 0 0 91 c0 87 1 92 29 120 31 31 75 38 112 19z
m497 -13 c29 -31 42 -78 42 -154 l0 -63 -100 0 -100 0 0 80 c0 118 26 159 101
160 25 0 42 -7 57 -23z m473 13 c34 -19 49 -64 49 -150 l0 -80 -100 0 -100 0
0 69 c0 77 11 115 42 149 23 24 75 30 109 12z m500 -19 c28 -28 29 -33 29
-120 l0 -91 -95 0 -95 0 0 91 c0 87 1 92 29 120 22 21 39 29 66 29 27 0 44 -8
66 -29z"/>
</g>
</svg>
